<svg width="40" height="40" viewBox="0 0 40 40" fill="none" xmlns="http://www.w3.org/2000/svg">
<mask id="mask0_8754_3367" style="mask-type:alpha" maskUnits="userSpaceOnUse" x="0" y="0" width="40" height="40">
<rect width="40" height="40" fill="#D9D9D9"/>
</mask>
<g mask="url(#mask0_8754_3367)">
<path d="M16.6628 36.6668C14.3203 36.6668 12.1351 36.2386 10.1073 35.3822C8.07957 34.5256 6.31568 33.3472 4.81568 31.8472C3.31568 30.3472 2.13734 28.5834 1.28068 26.5556C0.424288 24.5278 -0.00390625 22.3427 -0.00390625 20.0002C-0.00390625 17.676 0.424288 15.5 1.28068 13.4722C2.13734 11.4445 3.31568 9.68058 4.81568 8.18058C6.31568 6.68058 8.07957 5.4978 10.1073 4.63225C12.1351 3.76641 14.3203 3.3335 16.6628 3.3335C18.6536 3.3335 20.5193 3.64364 22.2598 4.26391C24.0007 4.88447 25.5794 5.741 26.9961 6.8335L24.9961 8.84725C23.8294 7.97697 22.5471 7.30336 21.149 6.82641C19.7507 6.34975 18.2553 6.11141 16.6628 6.11141C12.7461 6.11141 9.45207 7.44697 6.78068 10.1181C4.10957 12.7895 2.77401 16.0835 2.77401 20.0002C2.77401 23.9168 4.10957 27.2109 6.78068 29.8822C9.45207 32.5534 12.7461 33.8889 16.6628 33.8889C20.5794 33.8889 23.8735 32.5534 26.5448 29.8822C29.216 27.2109 30.5515 23.9168 30.5515 20.0002C30.5515 19.2779 30.5007 18.5696 30.399 17.8752C30.2971 17.1807 30.1443 16.5047 29.9407 15.8472L32.1211 13.6668C32.5192 14.6482 32.8201 15.6667 33.024 16.7222C33.2276 17.7778 33.3294 18.8704 33.3294 20.0002C33.3294 22.3427 32.8965 24.5278 32.0307 26.5556C31.1651 28.5834 29.9823 30.3472 28.4823 31.8472C26.9823 33.3472 25.2185 34.5256 23.1907 35.3822C21.1629 36.2386 18.9869 36.6668 16.6628 36.6668ZM14.2461 27.6114L7.30151 20.6389L9.32943 18.6114L14.2461 23.5281L31.3015 6.4585L33.3573 8.48641L14.2461 27.6114Z" fill="#EE7444"/>
</g>
</svg>
