<svg width="40" height="40" viewBox="0 0 40 40" fill="none" xmlns="http://www.w3.org/2000/svg">
<mask id="mask0_8754_3357" style="mask-type:alpha" maskUnits="userSpaceOnUse" x="0" y="0" width="40" height="40">
<rect width="40" height="40" fill="#D9D9D9"/>
</mask>
<g mask="url(#mask0_8754_3357)">
<path d="M2.77792 32.2221V7.77792V28.8054V25.1804V32.2221ZM2.77792 35C2.02792 35 1.37736 34.7246 0.82625 34.1737C0.275417 33.6226 0 32.9721 0 32.2221V7.77792C0 7.02792 0.275417 6.37736 0.82625 5.82625C1.37736 5.27542 2.02792 5 2.77792 5H27.2221C27.9721 5 28.6226 5.27542 29.1738 5.82625C29.7246 6.37736 30 7.02792 30 7.77792V23.0554H27.2221V7.77792H2.77792V32.2221H16.1113V35H2.77792ZM24.1388 36.6667L18.5554 31.0833L20.5138 29.1113L24.1388 32.7362L31.3613 25.5138L33.3333 27.4721L24.1388 36.6667ZM7.77792 21.3888C8.15736 21.3888 8.48375 21.2522 8.75708 20.9792C9.03014 20.7061 9.16667 20.3797 9.16667 20C9.16667 19.6203 9.03014 19.2939 8.75708 19.0208C8.48375 18.7478 8.15736 18.6112 7.77792 18.6112C7.3982 18.6112 7.07181 18.7478 6.79875 19.0208C6.52542 19.2939 6.38875 19.6203 6.38875 20C6.38875 20.3797 6.52542 20.7061 6.79875 20.9792C7.07181 21.2522 7.3982 21.3888 7.77792 21.3888ZM7.77792 14.6112C8.15736 14.6112 8.48375 14.4746 8.75708 14.2013C9.03014 13.9282 9.16667 13.6018 9.16667 13.2221C9.16667 12.8426 9.03014 12.5163 8.75708 12.2429C8.48375 11.9699 8.15736 11.8333 7.77792 11.8333C7.3982 11.8333 7.07181 11.9699 6.79875 12.2429C6.52542 12.5163 6.38875 12.8426 6.38875 13.2221C6.38875 13.6018 6.52542 13.9282 6.79875 14.2013C7.07181 14.4746 7.3982 14.6112 7.77792 14.6112ZM13.1113 21.3888H23.2221V18.6112H13.1113V21.3888ZM13.1113 14.6112H23.2221V11.8333H13.1113V14.6112Z" fill="#EE7444"/>
</g>
</svg>
