<svg width="40" height="40" viewBox="0 0 40 40" fill="none" xmlns="http://www.w3.org/2000/svg">
<mask id="mask0_8754_3362" style="mask-type:alpha" maskUnits="userSpaceOnUse" x="0" y="0" width="40" height="40">
<rect width="40" height="40" fill="#D9D9D9"/>
</mask>
<g mask="url(#mask0_8754_3362)">
<path d="M8.32943 28.3335H24.9961V25.5556H8.32943V28.3335ZM16.5794 23.1668L23.1907 16.5835L21.2461 14.6389L17.9961 17.8335V10.0002H15.2182V17.8335L11.9682 14.6389L10.024 16.5835L16.5794 23.1668ZM16.6628 36.6668C14.3758 36.6668 12.2185 36.2293 10.1907 35.3543C8.1629 34.4793 6.39429 33.2872 4.88484 31.7781C3.37568 30.2686 2.18359 28.5 1.30859 26.4722C0.433594 24.4445 -0.00390625 22.2871 -0.00390625 20.0002C-0.00390625 17.6946 0.433594 15.5279 1.30859 13.5002C2.18359 11.4724 3.37568 9.7085 4.88484 8.2085C6.39429 6.7085 8.1629 5.521 10.1907 4.646C12.2185 3.771 14.3758 3.3335 16.6628 3.3335C18.9683 3.3335 21.135 3.771 23.1628 4.646C25.1905 5.521 26.9544 6.7085 28.4544 8.2085C29.9544 9.7085 31.1419 11.4724 32.0169 13.5002C32.8919 15.5279 33.3294 17.6946 33.3294 20.0002C33.3294 22.2871 32.8919 24.4445 32.0169 26.4722C31.1419 28.5 29.9544 30.2686 28.4544 31.7781C26.9544 33.2872 25.1905 34.4793 23.1628 35.3543C21.135 36.2293 18.9683 36.6668 16.6628 36.6668ZM16.6628 33.8889C20.533 33.8889 23.8154 32.5371 26.5098 29.8335C29.2043 27.1299 30.5515 23.8521 30.5515 20.0002C30.5515 16.1299 29.2043 12.8475 26.5098 10.1531C23.8154 7.45863 20.533 6.11141 16.6628 6.11141C12.8108 6.11141 9.53304 7.45863 6.82943 10.1531C4.12582 12.8475 2.77401 16.1299 2.77401 20.0002C2.77401 23.8521 4.12582 27.1299 6.82943 29.8335C9.53304 32.5371 12.8108 33.8889 16.6628 33.8889Z" fill="#EE7444"/>
</g>
</svg>
