<svg width="40" height="40" viewBox="0 0 40 40" fill="none" xmlns="http://www.w3.org/2000/svg">
<mask id="mask0_8754_3352" style="mask-type:alpha" maskUnits="userSpaceOnUse" x="0" y="0" width="40" height="40">
<rect width="40" height="40" fill="#D9D9D9"/>
</mask>
<g mask="url(#mask0_8754_3352)">
<path d="M-0.00390625 31.6667V28.8888H16.6628V31.6667H-0.00390625ZM-0.00390625 23.0554V20.2779H8.32943V23.0554H-0.00390625ZM-0.00390625 14.4446V11.6667H8.32943V14.4446H-0.00390625ZM31.3848 31.6667L24.8015 25.0833C24.0979 25.6111 23.3364 26.0069 22.5169 26.2708C21.6975 26.5347 20.8572 26.6667 19.9961 26.6667C17.6905 26.6667 15.7253 25.8542 14.1003 24.2292C12.4753 22.6042 11.6628 20.6389 11.6628 18.3333C11.6628 16.0278 12.4753 14.0625 14.1003 12.4375C15.7253 10.8125 17.6905 10 19.9961 10C22.3017 10 24.2669 10.8125 25.8919 12.4375C27.5169 14.0625 28.3294 16.0278 28.3294 18.3333C28.3294 19.1944 28.1975 20.0347 27.9336 20.8542C27.6697 21.6736 27.2739 22.4351 26.7461 23.1388L33.3294 29.7221L31.3848 31.6667ZM19.9894 23.8888C21.5308 23.8888 22.8432 23.3493 23.9265 22.2704C25.0098 21.1915 25.5515 19.8814 25.5515 18.34C25.5515 16.7986 25.0121 15.4862 23.9332 14.4029C22.8543 13.3196 21.5442 12.7779 20.0028 12.7779C18.4614 12.7779 17.149 13.3174 16.0657 14.3963C14.9823 15.4751 14.4407 16.7853 14.4407 18.3267C14.4407 19.8681 14.9801 21.1804 16.059 22.2638C17.1379 23.3471 18.448 23.8888 19.9894 23.8888Z" fill="#EE7444"/>
</g>
</svg>
